# xmcd
#
# Track frame offsets: 
#        150
#        9908
#        25915
#        40952
#
# Disc length: 805 seconds
#
# Revision: 0
# Processed by: cddbd v1.4PL0 Copyright (c) Steve Scherf et al.
# Submitted via: ExactAudioCopy v0.90b4
#
DISCID=23032304
DTITLE=Kelly Kessler - Life of Regret EP
DYEAR=2002
DGENRE=Country
TTITLE0=Life of Regret
TTITLE1=Damn You
TTITLE2=Well of Tears
TTITLE3=Point of No Return
EXTD=
EXTT0=
EXTT1=
EXTT2=
EXTT3=
PLAYORDER=
